<svg version="1" xmlns="http://www.w3.org/2000/svg" width="933.333" height="933.333" viewBox="0 0 700.000000 700.000000"><path d="M329.8.5c-.1.1-4.1.5-8.8.9-10 .7-22.5 2.2-29.5 3.6-2.7.5-6.1 1.2-7.5 1.4-19.1 3.5-48.8 12.1-62.7 18.2-1.8.8-4.8 2.1-6.7 2.9-1.9.8-3.7 1.5-4.1 1.5-1.7 0-31.7 15.8-42.2 22.2-13.4 8.1-31.9 21.2-39.4 27.8-1 .8-4.2 3.5-7.3 6-9.1 7.4-34.5 33.7-44 45.5-23.3 29-43.8 65.2-56.3 99.5-3.5 9.3-10.9 33.9-11.8 38.9-.3 1.4-.7 3.7-1 5.1-1.8 7.9-4.4 22.3-5 27.5-.4 3.3-.9 6.9-1.1 8-1.9 10-2.6 56.7-1.1 71.5 3.7 36.1 11.4 67.8 23.9 99 5.2 12.9 16.8 36.8 21.3 43.9 1.4 2.3 2.5 4.3 2.5 4.6 0 1 15.9 24.3 22.7 33.2 22.3 29.4 53.8 59 84.8 79.6 13.6 9.1 15.1 9.9 29.5 17.6 24.3 13 47.5 22.1 73.5 29.1 13.2 3.5 34.1 7.7 42.7 8.6 3.5.3 6.6.8 6.9 1 1.5.9 23.4 1.9 41.4 1.9 18.3 0 33.5-.8 42.5-2.1 35.8-5.3 61.3-12.1 90-23.8 27.5-11.3 57.3-28.4 78.6-45.1 2.8-2.2 6.8-5.4 9-7 8.4-6.5 25-22 34.9-32.6 53.5-57.3 86.6-131.6 93.3-209.4 1.3-15.6.4-67.7-1.3-70.4-.1-.4-.6-3.3-.9-6.6-.3-3.3-.8-6.9-1-8-.2-1.1-1.1-6.1-2.1-11-15.4-82.3-63.8-160.3-131.5-211.7-10.6-8-29.6-20.8-31-20.8-.5 0-1-.5-1-1 0-.6-.5-1-1-1-.6 0-2.9-1.2-5.2-2.6-12.7-8-44.5-22.2-64.3-28.7C433.3 9.2 418.7 6.1 383 1.4c-4.7-.6-52.6-1.5-53.2-.9zM376 34.4c4.7.4 9.6.9 11 1.1 1.4.2 4.5.7 7 1 21.7 2.7 48.5 9.8 72 19 77.3 30.2 143.4 94.5 174.9 170 2.3 5.5 4.6 10.9 5.1 12 5.4 11.9 15.4 50.7 17.5 68.5.3 2.5.8 5.6 1 7 2.4 14 2.4 60.2.1 72.6-.2 1-.7 4.4-1 7.5-.4 3.1-.9 6.7-1.1 8-.3 1.3-1 5.1-1.6 8.4-.6 3.3-1.9 9.6-3.1 14-1.1 4.4-2.2 8.7-2.4 9.5-5.3 22.1-18.6 53.8-32.1 76.5-5 8.5-14.7 23.5-17.5 27-31 39.6-57.9 63.9-95.1 86.1-31 18.5-70.2 33.2-103.7 38.8-1.4.2-5.2.9-8.5 1.4-14.2 2.5-30.2 3.6-49.5 3.6-13.2-.1-31.5-1-36.3-2-1-.2-4-.6-6.6-.9-35.5-4.1-81-19.8-114.7-39.5-62.9-36.9-110-92.1-136.9-160.5-4.2-10.6-10.7-31.4-11.8-37.5-.3-1.4-1.2-5.2-2-8.5-.9-3.3-1.8-8.2-2.2-10.9-.3-2.7-.8-5.2-.9-5.5-.2-.3-.7-3.1-1-6.2-.4-3.1-.8-6.5-1-7.5-2.5-12.9-2.5-58.6-.1-73.8.2-1.1.6-4.4 1-7.1 3-24.9 11.9-56.6 23-82 16.5-37.9 37.4-68.5 66.9-98.1 25.9-25.8 51.3-44.1 84.1-60.3 30.2-15 67.8-26.6 96.1-29.6 3.2-.4 6.1-.8 6.4-1 .3-.2 5.2-.6 11-1s10.6-.8 10.7-.9c.5-.5 33.5.2 41.3.8z"/><path d="M198 213.5c-11.1 2.3-19.2 8.6-23.9 18.5l-2.6 5.5v225l2.6 5.5c11.1 23.4 43.2 25.8 57.8 4.3 5.7-8.3 5.4-2.5 5.5-119.3.1-59.1-.2-109.6-.5-112.2-1.5-9.3-6.2-16.8-14.2-22.1-8.3-5.6-15.6-7.1-24.7-5.2zM490.1 213.2c-13.3 2.3-24.5 13.4-26.9 26.9-.4 2.4-.7 53-.7 112.4l.2 108 2.2 5.9c3.1 7.7 11.1 15.7 18.9 18.6 5.7 2.2 13.5 2.7 19.5 1.4 9.2-1.9 18.3-9.4 22.6-18.4l2.6-5.5v-225l-2.6-5.5c-6.5-13.6-21.2-21.3-35.8-18.8zM147.8 266.5c-7.1 2.6-14.2 8.3-18 14.3-2.6 4.3-4.8 12.5-4.8 18.4 0 4.6-1.3 6.1-3.4 4.1-1.2-1.3-8.1-1.1-11.5.3-1.9.8-4.3 2.4-5.4 3.7-4.5 5.1-4.7 6.8-4.7 42.9 0 32.1.1 34.4 2 38.2 3.6 7.5 12.6 11.1 20.8 8.2 2.1-.7 2.2-.5 2.2 4.1 0 14.4 8.7 27.4 21.6 32.2 3 1.2 5.9 2.1 6.4 2.1.6 0 1-2.6 1-5.8.1-11 .1-158.7 0-161.5 0-3-.8-3.2-6.2-1.2zM545.9 270c-.3 25.3 0 164.2.3 164.5.9.9 10-2.4 13.9-4.9 5.2-3.5 11.6-11.8 13-16.9 1.6-6.1 1.7-6.7 1.8-12 .1-4.7.1-4.7 2.9-4 8.6 2.5 16.6-.8 20.2-8.3 1.9-3.9 2-6 2-39.1l-.1-35-2.7-4.2c-4.5-7-11.6-9.3-20.3-6.6-1.3.5-1.7-.7-2.2-7-1.1-15.5-11.2-27.5-25.9-30.9-2.8-.6-2.8-.6-2.9 4.4zM256.4 316.8c-2.2.3-2.2.4-2.2 33.3 0 23.9.3 32.9 1.2 33 4.3.3 186.6.3 188.4 0l2.2-.3-.2-33.1-.3-33.1-93.5-.1c-51.4 0-94.5.1-95.6.3z"/></svg>