<svg version="1" xmlns="http://www.w3.org/2000/svg" width="682.667" height="682.667" viewBox="0 0 512.000000 512.000000"><path d="M221.5 1.5c-23.2 3.6-43.7 12.4-63 26.9-18.5 13.9-38.9 39.8-50.4 64.1-1.9 3.8-7.3 15.1-12.1 25C72.8 165 55.5 208.3 41.7 253c-3.6 11.7-10.3 36.5-11.1 41-.2 1.4-1.4 6.8-2.5 12-2.5 11-5.6 30.4-6.7 40.5-.3 3.8-.8 7.9-1 9-.2 1.1-.6 7.2-.9 13.5-.6 12.9-1.3 22.3-1.9 26-.9 4.7-1.5 9.5-2.2 16-.3 3.6-.8 6.8-1 7.1-.6 1.1-1.7 19.1-1.6 28.3.1 17.4 2.6 25 9.7 29.2 6.5 3.8 19.7 7.6 31 8.9 2.8.4 6.1.8 7.5 1 1.4.2 8.4.6 15.5 1 11.8.6 14.2 1.1 26 5.1 11.8 4 29.1 8.9 35.5 10.1 1.4.2 4.5.9 7 1.4 5.4 1.2 18.8 3.5 25 4.3 16.8 2.1 20 2.5 31.5 3.3 20.1 1.5 80.1.6 85.8-1.2.6-.2 4.1-.6 7.7-.9 11.6-1.1 15.2-1.6 31-4.5 15.1-2.8 14.2-2.6 24.5-5.1 5-1.2 9.8-2.3 10.7-2.5 4.4-.9 26.3-8.1 35.8-11.7 22.1-8.4 49.3-23.7 62.9-35.5 27.7-24 39.4-47.7 39.2-79.8 0-7.2-.3-14.1-.6-15.5-.5-2.5-1.5-8.8-2-12.5-.3-3-3.6-14.6-5-18-.6-1.7-1.8-4.6-2.5-6.5-6-15.8-21.6-35.2-37.1-46.3-17-12.1-41.5-22-62.4-25.3-2.7-.4-5.2-.8-5.5-.9-.8-.2-10-1.4-15.9-2.1-6.7-.7-32.9-.8-39.6-.1-2.7.3-7.9.9-11.5 1.2-3.6.3-7.2.8-8 1-.8.2-3.5.7-6 1-2.5.3-6.1 1-8 1.5-1.9.5-4.8 1.1-6.5 1.3-5.1.8-24.7 6.4-34.8 10.1-14.5 5.3-32.1 13.9-43.2 21.4-11.2 7.4-25.4 21-30.5 29-2.9 4.6-3.5 5-4.1 3.4-.7-1.8-1.7-11.7-2.5-24.7-.9-14.8-.3-51.8 1.1-70.7 1.3-17.1 1.5-20.4 2-23.8.2-1.9.7-6 1.1-9 .3-3 .8-6.6.9-8 .2-1.4.7-5.4 1-9 .4-3.6.8-6.7 1-6.9.2-.2 5.2 1.1 11.2 2.9 32.8 9.7 35.8 10 51.4 5.9 18.7-4.9 36.6-14.6 40.4-21.8 2.7-5.3-.3-15.2-7.6-25.4-2.7-3.7-4.9-6.9-4.9-7.2 0-.2 6.3-3.4 14-7.2 13.3-6.5 14.1-7 16.3-11.3 3.6-7.4 3.1-27.9-1.1-42-8-26.8-23.8-45.8-43-51.6-7.1-2.2-24.7-2.6-35.7-.9z"/></svg>